<?xml version="1.0" standalone="no"?>
<!DOCTYPE svg PUBLIC "-//W3C//DTD SVG 20010904//EN"
 "http://www.w3.org/TR/2001/REC-SVG-20010904/DTD/svg10.dtd">
<svg version="1.0" xmlns="http://www.w3.org/2000/svg"
 width="422.000000pt" height="677.000000pt" viewBox="0 0 422.000000 677.000000"
 preserveAspectRatio="xMidYMid meet">

<g transform="translate(0.000000,677.000000) scale(0.100000,-0.100000)"
fill="#000000" stroke="none">
<path d="M1027 6063 c-4 -3 -7 -158 -7 -343 l0 -337 693 -5 c380 -3 1001 -3
1380 0 l687 5 0 343 0 344 -1373 0 c-756 0 -1377 -3 -1380 -7z m971 -255 c3
-15 -4 -18 -32 -18 -32 0 -36 -3 -36 -25 0 -22 4 -25 35 -25 24 0 35 -5 35
-15 0 -10 -11 -15 -35 -15 l-35 0 0 -50 c0 -43 -3 -50 -20 -50 -19 0 -20 7
-20 111 l0 110 52 -3 c41 -2 54 -7 56 -20z m68 11 c8 -14 -21 -43 -35 -35 -6
4 -11 16 -11 27 0 21 34 27 46 8z m784 -99 c0 -103 -1 -110 -20 -110 -19 0
-20 7 -20 110 0 103 1 110 20 110 19 0 20 -7 20 -110z m80 0 c0 -103 -1 -110
-20 -110 -19 0 -20 7 -20 110 0 103 1 110 20 110 19 0 20 -7 20 -110z m-870
-30 c0 -73 -2 -80 -20 -80 -18 0 -20 7 -20 80 0 73 2 80 20 80 18 0 20 -7 20
-80z m100 67 c0 -4 0 -11 0 -17 0 -5 -6 -10 -14 -10 -16 0 -26 -30 -26 -82 0
-31 -4 -38 -20 -38 -18 0 -20 7 -20 80 l0 80 40 -3 c22 -1 40 -6 40 -10z m173
-18 c9 -12 17 -32 17 -45 0 -23 -3 -24 -61 -24 -55 0 -60 -2 -49 -16 10 -11
23 -14 51 -9 42 7 60 -8 30 -24 -22 -12 -71 -14 -96 -5 -18 7 -45 55 -45 79 0
9 14 30 30 47 27 26 36 30 68 25 20 -4 45 -16 55 -28z m86 -9 c14 -46 25 -45
41 5 15 46 36 44 51 -5 7 -22 15 -40 19 -40 4 0 12 18 19 40 9 30 17 40 32 40
13 0 19 -5 17 -12 -3 -7 -16 -43 -29 -80 -28 -81 -50 -89 -68 -27 -14 45 -20
44 -37 -4 -19 -55 -38 -45 -68 35 -31 87 -31 88 -8 88 13 0 22 -12 31 -40z
m361 -40 l0 -78 -57 -1 c-72 0 -103 23 -103 80 0 53 33 78 105 77 l55 -1 0
-77z"/>
<path d="M2235 5720 c-4 -6 10 -10 35 -10 25 0 39 4 35 10 -3 6 -19 10 -35 10
-16 0 -32 -4 -35 -10z"/>
<path d="M2672 5718 c-21 -21 -14 -57 13 -70 34 -15 57 5 53 46 -2 25 -8 32
-28 34 -14 2 -31 -3 -38 -10z"/>
<path d="M1020 4825 l0 -345 1380 0 1380 0 0 338 0 339 -827 6 c-454 4 -1075
7 -1380 7 l-553 0 0 -345z m447 93 c9 -12 83 -193 83 -203 0 -16 -43 -2 -47
15 -4 16 -14 20 -53 20 -39 0 -49 -4 -53 -20 -3 -12 -14 -20 -27 -20 -17 0
-21 4 -15 18 77 203 88 221 112 190z m343 -18 c0 -16 5 -30 10 -30 6 0 10 -9
10 -20 0 -11 -4 -20 -10 -20 -6 0 -10 -27 -10 -60 0 -57 -1 -60 -25 -60 -24 0
-25 3 -25 58 0 32 -5 63 -12 70 -9 9 -9 15 0 24 7 7 12 25 12 40 0 23 4 28 25
28 21 0 25 -5 25 -30z m80 -10 c0 -37 2 -40 19 -30 54 28 81 0 81 -86 0 -57
-2 -64 -20 -64 -18 0 -20 7 -20 55 0 40 -4 57 -15 61 -27 11 -45 -16 -45 -67
0 -42 -3 -49 -20 -49 -19 0 -20 7 -20 110 0 103 1 110 20 110 17 0 20 -7 20
-40z m560 10 c0 -16 5 -30 10 -30 6 0 10 -9 10 -20 0 -11 -4 -20 -10 -20 -6 0
-10 -27 -10 -60 0 -57 -1 -60 -25 -60 -24 0 -25 3 -25 58 0 32 -5 63 -12 70
-9 9 -9 15 0 24 7 7 12 25 12 40 0 23 4 28 25 28 21 0 25 -5 25 -30z m80 11
c0 -27 -19 -36 -37 -18 -18 18 -9 37 18 37 12 0 19 -7 19 -19z m470 -11 c0
-16 5 -30 10 -30 6 0 10 -9 10 -20 0 -11 -4 -20 -10 -20 -6 0 -10 -27 -10 -60
0 -57 -1 -60 -25 -60 -24 0 -25 3 -25 58 0 32 -5 63 -12 70 -9 9 -9 15 0 24 7
7 12 25 12 40 0 23 4 28 25 28 21 0 25 -5 25 -30z m80 11 c0 -27 -19 -36 -37
-18 -18 18 -9 37 18 37 12 0 19 -7 19 -19z m-1450 -106 c4 -52 8 -60 25 -60
17 0 21 8 25 60 4 52 8 60 25 60 18 0 20 -6 18 -59 -2 -69 -21 -96 -67 -96
-40 0 -52 9 -65 43 -12 32 -15 100 -4 111 4 4 14 5 23 4 11 -2 16 -20 20 -63z
m515 55 c25 -9 58 -66 49 -82 -3 -5 -32 -8 -66 -8 -54 0 -59 -2 -48 -16 10
-11 23 -14 51 -9 42 7 60 -8 30 -24 -25 -14 -77 -14 -101 -1 -48 26 -43 110
10 137 30 15 41 16 75 3z m211 -15 c8 -11 14 -43 14 -77 0 -51 -2 -58 -20 -58
-17 0 -20 7 -20 48 0 55 -10 75 -36 70 -16 -3 -20 -14 -22 -61 -3 -53 -5 -57
-27 -57 -24 0 -25 2 -25 73 0 41 2 76 6 79 3 3 30 5 61 4 41 -1 59 -6 69 -21z
m174 -55 c0 -73 -2 -80 -20 -80 -18 0 -20 7 -20 80 0 73 2 80 20 80 18 0 20
-7 20 -80z m176 59 c23 -19 5 -29 -39 -23 -51 7 -73 -11 -63 -51 7 -29 44 -42
74 -26 15 8 23 7 32 -4 15 -18 -15 -35 -65 -35 -72 0 -112 82 -62 127 12 11
29 23 37 26 20 8 70 0 86 -14z m214 -60 l0 -77 -61 -1 c-51 0 -65 4 -85 24
-31 32 -32 78 0 109 19 20 33 24 85 23 l61 0 0 -78z m160 1 c0 -73 -2 -80 -20
-80 -18 0 -20 7 -20 80 0 73 2 80 20 80 18 0 20 -7 20 -80z m163 60 c13 -11
28 -31 31 -45 7 -29 -15 -79 -39 -89 -59 -22 -125 14 -125 68 0 71 77 110 133
66z m190 2 c13 -11 17 -31 17 -79 0 -56 -2 -63 -20 -63 -18 0 -20 7 -20 55 0
40 -4 57 -15 61 -27 11 -45 -16 -45 -67 0 -42 -3 -49 -20 -49 -18 0 -20 7 -20
79 l0 79 53 -1 c31 0 59 -6 70 -15z"/>
<path d="M1437 4833 c-2 -10 -8 -26 -12 -35 -6 -15 -2 -18 24 -18 17 0 31 2
31 4 0 1 -5 17 -11 35 -12 35 -24 40 -32 14z"/>
<path d="M2075 4820 c-4 -6 10 -10 35 -10 25 0 39 4 35 10 -3 6 -19 10 -35 10
-16 0 -32 -4 -35 -10z"/>
<path d="M2800 4809 c-9 -16 -8 -26 5 -45 19 -29 36 -30 60 -4 15 17 16 24 7
45 -15 32 -56 34 -72 4z"/>
<path d="M3161 4816 c-18 -22 -6 -63 21 -72 30 -9 60 28 49 59 -10 27 -52 34
-70 13z"/>
<path d="M1020 3925 l0 -345 1380 0 1380 0 0 345 0 345 -1380 0 -1380 0 0
-345z m437 45 c12 -30 31 -79 42 -107 l21 -53 -24 0 c-15 0 -26 7 -29 20 -4
16 -14 20 -50 20 -37 0 -47 -4 -52 -20 -6 -19 -45 -29 -45 -12 0 6 50 136 77
200 11 27 39 5 60 -48z m1191 34 c18 -12 21 -18 12 -29 -10 -12 -16 -12 -41 0
-60 32 -113 4 -113 -60 0 -64 61 -95 113 -59 20 15 24 15 38 1 14 -14 12 -17
-15 -31 -17 -9 -50 -16 -73 -16 -33 0 -47 6 -75 34 -64 64 -38 147 56 180 22
8 71 -2 98 -20z m472 -4 c0 -27 3 -30 33 -32 17 0 42 0 55 1 28 2 30 -24 2
-39 -16 -9 -20 -21 -20 -65 0 -48 -2 -55 -20 -55 -18 0 -20 7 -20 60 0 47 -3
60 -15 60 -12 0 -15 -13 -15 -60 0 -53 -2 -60 -20 -60 -18 0 -20 7 -20 60 0
33 -4 60 -10 60 -5 0 -10 9 -10 20 0 11 5 20 10 20 6 0 10 14 10 30 0 23 4 30
20 30 16 0 20 -7 20 -30z m370 -80 c0 -103 -1 -110 -20 -110 -19 0 -20 7 -20
110 0 103 1 110 20 110 19 0 20 -7 20 -110z m-1815 38 c33 -15 26 -34 -11 -30
-54 4 -74 -6 -74 -37 0 -40 24 -58 60 -44 17 6 33 7 41 2 22 -15 -18 -39 -63
-39 -66 0 -107 65 -74 116 27 41 74 53 121 32z m211 -9 c22 -18 -3 -30 -44
-23 -38 7 -62 -9 -62 -41 0 -35 26 -51 60 -38 17 6 33 7 41 2 21 -14 -17 -39
-59 -39 -46 0 -68 14 -81 51 -13 37 7 85 42 99 27 12 83 5 103 -11z m159 11
c25 -9 58 -66 49 -82 -3 -5 -32 -8 -66 -8 -54 0 -59 -2 -48 -16 10 -11 23 -14
51 -9 42 7 60 -8 30 -24 -25 -14 -77 -14 -101 -1 -48 26 -43 110 10 137 30 15
41 16 75 3z m160 -3 c25 -19 10 -38 -23 -31 -26 5 -26 5 -7 -11 47 -37 55 -46
55 -59 0 -23 -29 -46 -58 -46 -36 0 -56 14 -49 34 6 14 11 15 28 6 39 -21 43
5 5 28 -26 15 -36 28 -36 46 0 40 48 59 85 33z m126 2 c28 -15 6 -41 -27 -33
-34 9 -30 -1 11 -25 57 -33 44 -91 -20 -91 -38 0 -59 18 -44 36 8 10 15 10 29
1 36 -22 34 4 -3 34 -43 35 -44 42 -17 69 22 22 42 25 71 9z m498 -15 c39 -33
41 -74 6 -109 -48 -49 -128 -24 -141 42 -5 27 -1 37 24 63 38 37 70 38 111 4z
m191 6 c6 -8 10 -43 10 -77 0 -56 -2 -63 -20 -63 -18 0 -20 7 -20 55 0 42 -4
57 -16 62 -25 9 -44 -24 -44 -74 0 -36 -3 -43 -20 -43 -18 0 -20 7 -20 79 l0
80 61 -3 c40 -1 63 -7 69 -16z m372 -10 c25 -26 29 -36 24 -63 -13 -66 -93
-91 -141 -42 -35 35 -33 76 6 109 41 34 73 33 111 -4z"/>
<path d="M1402 3925 c-18 -38 -15 -45 18 -45 17 0 30 2 30 5 0 8 -30 65 -34
65 -1 0 -8 -11 -14 -25z"/>
<path d="M1975 3920 c-4 -6 10 -10 35 -10 25 0 39 4 35 10 -3 6 -19 10 -35 10
-16 0 -32 -4 -35 -10z"/>
<path d="M2740 3909 c-9 -16 -8 -26 5 -45 8 -13 22 -24 30 -24 19 0 45 28 45
49 0 41 -61 57 -80 20z"/>
<path d="M3300 3911 c-14 -27 -13 -37 6 -55 22 -23 41 -20 59 8 13 19 14 29 5
45 -14 27 -56 28 -70 2z"/>
<path d="M1037 3353 c-4 -3 -7 -151 -7 -328 l0 -322 688 -5 c378 -3 994 -3
1370 0 l682 5 0 328 0 329 -1363 0 c-750 0 -1367 -3 -1370 -7z m683 -248 c0
-24 5 -35 15 -35 8 0 15 -9 15 -20 0 -11 -7 -20 -15 -20 -12 0 -15 -13 -15
-60 0 -53 -2 -60 -20 -60 -18 0 -20 7 -20 60 0 33 -4 60 -10 60 -5 0 -10 9
-10 20 0 11 5 20 10 20 6 0 10 16 10 35 0 28 4 35 20 35 16 0 20 -7 20 -35z
m1368 -3 c2 -17 7 -32 13 -32 5 0 9 -9 9 -20 0 -11 -4 -20 -10 -20 -6 0 -10
-27 -10 -60 0 -57 -1 -60 -25 -60 -24 0 -25 3 -25 60 0 33 -4 60 -10 60 -5 0
-10 9 -10 20 0 11 5 20 10 20 6 0 10 13 10 28 0 33 8 44 30 40 9 -2 16 -16 18
-36z m82 23 c10 -12 10 -18 0 -30 -16 -19 -39 -19 -46 0 -6 15 11 45 26 45 4
0 13 -7 20 -15z m-1780 -13 c46 -22 67 -79 50 -134 -15 -51 -43 -68 -112 -68
l-58 0 0 110 0 110 43 0 c23 0 58 -8 77 -18z m788 -4 c3 -15 -4 -18 -37 -18
-37 0 -41 -2 -41 -25 0 -22 4 -25 40 -25 29 0 40 -4 40 -15 0 -11 -11 -15 -40
-15 -39 0 -40 -1 -40 -35 0 -34 1 -35 40 -35 29 0 40 -4 40 -15 0 -12 -14 -15
-65 -15 l-65 0 0 103 c0 57 3 107 7 111 4 4 32 6 63 4 43 -2 56 -7 58 -20z
m-538 -118 l0 -78 -62 -1 c-73 0 -92 9 -107 49 -23 66 20 108 110 108 l59 0 0
-78z m290 -1 l0 -79 -63 0 c-79 0 -107 21 -107 80 0 56 32 78 110 78 l60 0 0
-79z m396 66 c13 -9 19 -30 22 -79 4 -66 4 -66 -22 -66 -25 0 -26 2 -26 55 0
41 -4 57 -16 62 -24 9 -36 -11 -42 -66 -4 -41 -8 -51 -23 -51 -17 0 -19 8 -19
79 l0 78 54 1 c30 0 62 -5 72 -13z m192 -1 c32 -22 17 -37 -29 -29 -46 8 -69
-6 -69 -41 0 -32 38 -51 69 -34 17 9 26 9 38 -1 13 -12 13 -14 -3 -26 -19 -14
-81 -17 -109 -7 -24 10 -46 60 -39 89 14 56 93 83 142 49z m182 7 c0 -5 7 -26
16 -47 l16 -38 20 47 c16 37 26 47 44 47 13 0 24 -2 24 -4 0 -2 -22 -52 -50
-110 -40 -87 -53 -106 -71 -106 -16 0 -19 4 -14 18 17 40 16 65 -5 117 -25 60
-23 59 -51 45 -15 -9 -19 -22 -19 -65 0 -52 -1 -55 -25 -55 -25 0 -25 1 -25
78 l0 79 70 1 c39 1 70 -2 70 -7z m286 -17 c52 -51 16 -134 -58 -134 -36 0
-38 -2 -38 -30 0 -25 -4 -30 -25 -30 l-25 0 0 108 0 109 61 0 c52 1 66 -3 85
-23z m184 -54 c0 -73 -2 -80 -20 -80 -18 0 -20 7 -20 80 0 73 2 80 20 80 18 0
20 -7 20 -80z m149 65 c31 -16 41 -33 41 -73 0 -68 -106 -101 -149 -46 -35 45
-25 96 24 122 27 15 51 15 84 -3z m197 0 c13 -9 19 -30 22 -79 4 -66 4 -66
-22 -66 -25 0 -26 2 -26 55 0 41 -4 57 -16 62 -24 9 -36 -11 -42 -66 -4 -41
-8 -51 -23 -51 -17 0 -19 8 -19 79 l0 78 54 1 c30 0 62 -5 72 -13z"/>
<path d="M1320 3016 c0 -69 2 -76 20 -76 31 0 60 36 60 73 0 41 -17 64 -52 73
l-28 6 0 -76z"/>
<path d="M1520 3010 c-13 -25 -5 -56 16 -64 24 -9 54 12 54 37 0 46 -50 64
-70 27z"/>
<path d="M1822 3021 c-18 -11 -11 -61 10 -74 23 -15 48 8 48 43 0 35 -29 50
-58 31z"/>
<path d="M2888 3005 c-10 -22 -9 -29 10 -48 18 -17 26 -19 40 -11 21 14 28 50
12 70 -19 22 -49 17 -62 -11z"/>
<path d="M3252 3021 c-19 -11 -11 -62 11 -75 15 -9 22 -7 37 12 33 40 -5 91
-48 63z"/>
<path d="M2161 1759 c-78 -15 -141 -40 -156 -62 -10 -15 -15 -46 -15 -100 0
-93 13 -112 106 -147 49 -19 85 -23 219 -27 228 -8 379 22 420 81 17 24 21
157 5 185 -13 25 -93 58 -171 70 -76 13 -345 13 -408 0z m445 -43 c66 -21 86
-42 59 -63 -48 -34 -127 -47 -290 -48 -200 0 -315 25 -315 69 0 16 60 41 130
56 72 15 356 5 416 -14z"/>
<path d="M1990 1376 c0 -59 3 -70 26 -91 32 -30 96 -51 197 -65 113 -15 187
-13 187 4 0 7 9 25 21 40 19 25 25 26 108 26 61 0 93 -4 107 -15 29 -22 53
-18 85 14 26 26 29 36 29 91 0 71 10 69 -115 29 -63 -20 -90 -23 -265 -23
-175 0 -202 3 -265 23 -125 40 -115 43 -115 -33z"/>
<path d="M2456 1244 c-22 -21 -23 -265 -2 -283 9 -8 66 -11 182 -9 l169 3 0
130 0 130 -86 3 c-71 2 -90 6 -104 22 -24 26 -135 29 -159 4z"/>
<path d="M1996 1232 c-4 -3 -6 -32 -6 -64 0 -52 4 -63 29 -88 42 -43 193 -79
334 -80 l47 0 0 85 0 85 -72 0 c-89 1 -205 21 -275 48 -29 11 -54 17 -57 14z"/>
<path d="M1607 754 c-3 -11 -8 -41 -12 -69 -3 -27 -8 -58 -11 -67 -5 -15 1
-18 35 -18 52 0 86 16 100 47 28 61 0 111 -66 120 -34 4 -42 2 -46 -13z m97
-26 c9 -12 16 -32 16 -43 0 -41 -28 -65 -76 -65 l-45 0 6 48 c11 78 13 82 50
82 24 0 39 -7 49 -22z"/>
<path d="M1950 750 c0 -10 -8 -24 -17 -29 -13 -7 -14 -10 -4 -11 11 0 12 -12
7 -56 -4 -31 -3 -53 3 -50 4 3 11 27 14 53 3 26 10 49 16 51 9 3 9 7 0 18 -6
7 -9 21 -5 29 3 8 1 15 -4 15 -6 0 -10 -9 -10 -20z"/>
<path d="M2247 753 c-3 -10 -8 -36 -11 -58 -4 -22 -9 -52 -12 -67 -3 -16 -1
-28 4 -28 5 0 12 18 16 40 6 37 8 40 39 40 39 0 57 15 57 47 0 39 -83 62 -93
26z m79 -18 c9 -23 -15 -45 -47 -45 -29 0 -35 12 -23 44 8 21 63 21 70 1z"/>
<path d="M3131 703 c-7 -40 -11 -80 -9 -90 3 -10 10 14 17 54 7 40 11 80 9 90
-3 10 -10 -14 -17 -54z"/>
<path d="M1776 698 c-23 -32 -20 -65 7 -82 26 -17 97 -17 97 0 0 6 3 31 6 55
l6 44 -50 3 c-43 2 -53 0 -66 -20z m92 -21 c5 -38 -14 -57 -54 -57 -28 0 -35
5 -40 25 -9 36 21 67 60 63 26 -2 32 -8 34 -31z"/>
<path d="M2017 702 c-24 -27 -22 -69 6 -86 19 -13 81 -16 91 -5 2 2 6 27 10
54 l6 50 -48 3 c-37 2 -52 -2 -65 -16z m77 2 c20 -8 21 -57 2 -73 -8 -7 -30
-11 -48 -9 -26 2 -34 8 -36 26 -6 43 38 73 82 56z"/>
<path d="M2376 698 c-9 -12 -16 -33 -16 -45 0 -30 42 -57 75 -49 35 9 31 23
-5 18 -29 -4 -60 11 -60 29 0 5 25 9 55 9 46 0 55 3 55 18 0 45 -76 60 -104
20z m82 0 c21 -21 13 -28 -33 -28 -25 0 -45 4 -45 8 0 15 24 32 45 32 12 0 26
-5 33 -12z"/>
<path d="M2516 708 c-11 -34 -15 -112 -6 -98 5 8 10 27 10 41 0 28 17 54 40
62 8 3 2 6 -13 6 -15 1 -29 -5 -31 -11z"/>
<path d="M2586 704 c-3 -9 4 -24 19 -38 36 -33 33 -50 -7 -42 -30 6 -31 5 -16
-10 22 -23 58 -10 58 21 0 14 -9 29 -20 35 -31 16 -26 44 6 36 17 -5 23 -3 19
4 -10 16 -52 12 -59 -6z"/>
<path d="M2687 702 c-40 -44 -5 -110 52 -97 46 10 69 73 39 103 -18 18 -73 14
-91 -6z m81 -4 c7 -7 12 -21 12 -33 0 -30 -19 -45 -57 -45 -27 0 -34 5 -39 25
-12 47 51 86 84 53z"/>
<path d="M2835 706 c-2 -6 -6 -33 -10 -61 -6 -57 8 -43 19 17 5 29 13 39 31
44 39 10 47 -3 40 -60 -4 -39 -3 -47 5 -33 6 9 10 36 8 60 l-3 42 -43 1 c-24
1 -45 -4 -47 -10z"/>
<path d="M2981 694 c-25 -31 -26 -43 -7 -70 11 -14 27 -19 60 -19 42 0 46 2
51 27 3 16 7 41 10 56 6 28 5 29 -44 31 -43 1 -52 -2 -70 -25z m89 0 c10 -11
11 -23 4 -42 -8 -23 -15 -27 -49 -27 -37 0 -40 2 -43 30 -6 48 58 76 88 39z"/>
<path d="M2197 437 c-4 -29 -10 -68 -13 -87 -5 -22 -4 -31 4 -26 5 3 13 40 17
82 8 86 1 112 -8 31z"/>
<path d="M2580 480 c0 -5 5 -10 10 -10 6 0 10 5 10 10 0 6 -4 10 -10 10 -5 0
-10 -4 -10 -10z"/>
<path d="M2644 465 c-3 -14 -9 -25 -13 -25 -3 0 -7 -27 -7 -60 -1 -33 2 -57 7
-54 5 3 9 17 9 32 0 15 6 39 14 54 9 17 11 28 4 30 -6 2 -4 11 6 20 20 20 20
28 1 28 -8 0 -17 -11 -21 -25z"/>
<path d="M2700 480 c0 -5 5 -10 10 -10 6 0 10 5 10 10 0 6 -4 10 -10 10 -5 0
-10 -4 -10 -10z"/>
<path d="M3017 483 c-4 -3 -7 -17 -7 -30 0 -22 -3 -23 -36 -17 -29 5 -40 2
-60 -17 -49 -46 -22 -100 50 -97 l43 1 11 81 c10 83 10 91 -1 79z m-28 -67
c22 -26 9 -69 -22 -80 -35 -13 -61 2 -65 37 -5 43 60 75 87 43z"/>
<path d="M2025 455 c-32 -31 -34 -86 -5 -115 27 -27 120 -27 120 0 0 5 -13 3
-28 -2 -88 -34 -144 75 -61 118 30 15 50 15 94 -1 20 -7 20 -6 1 9 -31 25 -92
21 -121 -9z"/>
<path d="M1732 424 c-25 -17 -31 -71 -10 -92 19 -19 66 -14 88 8 55 55 -14
129 -78 84z m72 -10 c21 -20 20 -43 -1 -66 -18 -21 -53 -24 -71 -6 -19 19 -14
55 10 72 28 20 43 20 62 0z"/>
<path d="M1865 415 c-11 -57 -13 -95 -4 -90 5 4 9 20 9 36 0 19 9 38 25 53
l26 24 -26 -2 c-17 -1 -27 -8 -30 -21z"/>
<path d="M2256 419 c-30 -23 -34 -60 -10 -84 24 -24 97 -17 106 10 9 28 9 102
0 88 -5 -8 -13 -9 -22 -3 -23 15 -45 12 -74 -11z m78 -5 c21 -21 20 -40 -4
-64 -24 -24 -53 -26 -74 -4 -21 21 -20 40 4 64 24 24 53 26 74 4z"/>
<path d="M2399 424 c-11 -14 -9 -20 15 -40 35 -31 29 -59 -12 -49 -20 5 -24 4
-16 -5 7 -6 22 -10 35 -8 32 4 37 41 8 61 -28 20 -19 48 12 40 15 -4 20 -3 15
5 -10 17 -41 15 -57 -4z"/>
<path d="M2490 421 c-8 -16 -5 -23 16 -40 35 -27 26 -56 -14 -46 -20 5 -24 4
-16 -5 7 -6 22 -10 35 -8 33 4 38 43 8 67 -26 21 -17 45 13 35 14 -4 18 -2 14
5 -11 18 -44 13 -56 -8z"/>
<path d="M2576 411 c-3 -17 -9 -44 -12 -61 -3 -16 -1 -30 4 -30 5 0 12 25 16
56 7 61 2 85 -8 35z"/>
<path d="M2693 380 c-5 -33 -6 -60 -2 -60 9 0 24 108 17 116 -3 2 -10 -23 -15
-56z"/>
<path d="M2805 433 c24 -6 45 -22 45 -34 0 -5 -20 -9 -45 -9 -47 0 -54 6 -32
30 6 8 2 6 -10 -4 -43 -36 -23 -96 32 -96 18 0 37 4 40 10 4 6 -5 7 -23 4 -20
-4 -34 -1 -45 11 -25 25 -12 35 44 35 42 0 49 3 49 20 0 21 -28 41 -57 39 -16
-1 -15 -2 2 -6z"/>
</g>
</svg>
